# xmcd CD database file
#
# Track frame offsets:
#	150
#	15416
#	30677
#	48940
#
# Disc length: 889 seconds
#
# Revision: 0
# Processed by: cddbd v1.5.1PL2 Copyright (c) Steve Scherf et al.
# Submitted via: CDex 1.60beta1
#
DISCID=23037704
DTITLE=Various Artist - おまな2 おまえんち萌えてるぞ ソフマップ特典DISK
DYEAR=2006
DGENRE=Soundtrack
TTITLE0=Marica and Moe - 恋のライフセイバー
TTITLE1=Funczion SOUNDS - 恋のライフセイバー (カラオケバージョン)
TTITLE2=Marica - スタア誕生
TTITLE3=さっぽろももこ - スタア誕生 (カラオケバージョン)
EXTD=YEAR: 2006
EXTT0=
EXTT1=
EXTT2=
EXTT3=
PLAYORDER=
